#!OML:ASF F:\VICON\USERDATA\INSTALL\rory3\rory3.ASF
:FULLY-SPECIFIED
:DEGREES
293
root 4.19986 17.5803 -13.48 1.58567 14.944 8.46791
lowerback 18.6291 -1.83841 -6.6239
upperback 1.23975 -3.55275 2.52854
thorax -8.52394 -1.39625 7.45123
lowerneck -8.37082 -8.01355 -6.29765
upperneck 27.8777 -9.57218 -2.06757
head 10.5296 -5.2335 -0.77432
rclavicle 1.07344e-014 1.90833e-014
rhumerus -22.5162 -10.3274 -62.2602
rradius 103.42
rwrist 18.9833
rhand -19.4643 9.6883
rfingers 7.12502
rthumb 6.85692 -20.1807
lclavicle 1.07344e-014 1.90833e-014
lhumerus -45.3893 10.0808 74.8338
lradius 45.5867
lwrist 7.8434
lhand -12.5526 52.785
lfingers 7.12502
lthumb 13.5244 82.3258
rfemur -33.3616 -0.553373 14.4564
rtibia 30.7111
rfoot -7.0197 -20.4518
rtoes 15.4468
lfemur 18.1125 -5.71869 -28.7351
ltibia 21.413
lfoot 11.8963 -9.46737
ltoes -25.8174
294
root 4.21614 17.5922 -13.2269 1.23204 14.6638 7.83135
lowerback 18.3189 -1.7685 -6.08826
upperback 1.29415 -3.31258 2.72604
thorax -8.35187 -1.30859 7.28017
lowerneck -8.80725 -7.96469 -5.96987
upperneck 28.4846 -9.42501 -2.48522
head 10.7951 -5.1801 -0.99559
rclavicle 5.4467e-014 1.59028e-015
rhumerus -22.5684 -8.76327 -62.4102
rradius 102.248
rwrist 21.1929
rhand -19.5807 9.81565
rfingers 7.12502
rthumb 6.74457 -20.0569
lclavicle 5.4467e-014 1.59028e-015
lhumerus -45.4637 10.021 75.1281
lradius 45.9531
lwrist 8.27017
lhand -13.1315 54.08
lfingers 7.12502
lthumb 12.9664 83.6571
rfemur -32.9479 0.520153 15.0481
rtibia 31.3329
rfoot -6.09918 -20.6015
rtoes 18.7877
lfemur 17.7584 -5.69327 -27.9157
ltibia 22.8782
lfoot 15.1997 -9.13196
ltoes -23.4586
295
root 4.23927 17.5778 -13.0079 0.818167 14.3256 7.32383
lowerback 18.5005 -1.68866 -5.56851
upperback 1.17766 -3.09852 2.8623
thorax -8.63597 -1.20466 7.09949
lowerneck -8.49726 -7.94624 -5.86545
upperneck 28.6234 -9.39725 -2.64959
head 10.7706 -5.17797 -1.05549
rclavicle 3.71727e-014 3.81667e-014
rhumerus -22.9301 -7.0073 -62.7183
rradius 100.752
rwrist 23.6396
rhand -19.0028 8.73188
rfingers 7.12502
rthumb 7.30246 -21.1221
lclavicle 3.71727e-014 3.81667e-014
lhumerus -45.9103 10.1002 75.2134
lradius 46.1261
lwrist 8.23423
lhand -13.0235 52.9877
lfingers 7.12502
lthumb 13.0706 82.5582
rfemur -32.6446 0.646692 15.7743
rtibia 32.1363
rfoot -4.7756 -19.9089
rtoes 20.496
lfemur 17.1769 -5.71914 -27.3605
ltibia 24.6884
lfoot 18.5652 -8.47529
ltoes -18.912
296
root 4.25454 17.5807 -12.7979 0.515604 13.9066 6.71881
lowerback 18.6572 -1.62301 -5.05975
upperback 0.913074 -2.89752 3.05911
thorax -9.06226 -1.09678 7
lowerneck -7.18414 -7.96494 -6.15639
upperneck 28.1821 -9.52341 -2.42262
head 10.3843 -5.245 -0.864893
rclavicle 4.69132e-014 -3.18055e-014
rhumerus -23.4928 -5.13323 -63.0198
rradius 99.1612
rwrist 24.8557
rhand -20.6098 9.70866
rfingers 7.12502
rthumb 5.75106 -20.1933
lclavicle 4.69132e-014 -3.18055e-014
lhumerus -46.5542 10.1919 75.3558
lradius 46.4143
lwrist 8.27628
lhand -12.6824 52.747
lfingers 7.12502
lthumb 13.3993 82.2961
rfemur -32.4375 1.13875 16.6167
rtibia 33.0794
rfoot -4.16113 -19.5358
rtoes 23.5729
lfemur 16.0709 -5.83935 -26.6808
ltibia 26.9843
lfoot 21.7683 -7.9081
ltoes -14.7029
297
root 4.26874 17.5806 -12.5766 0.189682 13.5941 6.20574
lowerback 18.7215 -1.51187 -4.48549
upperback 1.03014 -2.62149 3.13934
thorax -9.03237 -0.990454 6.68699
lowerneck -7.48204 -8.10567 -5.9726
upperneck 28.366 -9.72566 -2.46576
head 10.4995 -5.32232 -0.953513
rclavicle 3.27995e-014 -3.02153e-014
rhumerus -23.5671 -4.09117 -63.4747
rradius 97.2765
rwrist 26.3536
rhand -21.0846 9.86258
rfingers 7.12502
rthumb 5.29267 -20.0513
lclavicle 3.27995e-014 -3.02153e-014
lhumerus -46.1889 10.0089 75.7414
lradius 46.5615
lwrist 8.48746
lhand -13.1513 53.776
lfingers 7.12502
lthumb 12.9473 83.3543
rfemur -32.115 1.41256 17.4368
rtibia 34.1129
rfoot -3.97865 -18.9337
rtoes 25.3479
lfemur 14.8703 -5.9308 -26.0094
ltibia 29.6042
lfoot 24.413 -7.74419
ltoes -10.7602
298
root 4.27669 17.5893 -12.3561 -0.0620227 13.359 5.8247
lowerback 18.7863 -1.52108 -4.25217
upperback 0.963245 -2.56929 3.31667
thorax -9.15193 -0.964223 6.7439
lowerneck -7.2793 -7.96589 -6.03623
upperneck 28.51 -9.48895 -2.61967
head 10.5058 -5.24 -0.964165
rclavicle 2.16675e-014 1.27222e-014
rhumerus -23.5571 -2.60038 -63.9014
rradius 95.1116
rwrist 27.6916
rhand -21.5396 9.96079
rfingers 7.12502
rthumb 4.85337 -19.9636
lclavicle 2.16675e-014 1.27222e-014
lhumerus -46.4041 10.2151 75.9743
lradius 46.6811
lwrist 8.63034
lhand -13.3922 53.878
lfingers 7.12502
lthumb 12.7151 83.4709
rfemur -31.7401 1.63682 18.1524
rtibia 35.0549
rfoot -3.74354 -18.3511
rtoes 25.6775
lfemur 13.5317 -6.03128 -25.4211
ltibia 32.294
lfoot 26.8803 -8.08765
ltoes -8.71101
299
root 4.27985 17.5998 -12.1398 -0.329566 13.1152 5.49067
lowerback 18.8897 -1.40226 -4.01279
upperback 0.962029 -2.3554 3.40139
thorax -9.2475 -0.865614 6.65224
lowerneck -7.20879 -8.16684 -6.21595
upperneck 28.4197 -9.79829 -2.43861
head 10.4868 -5.37939 -0.903083
rclavicle -2.56432e-014 9.54166e-015
rhumerus -23.4361 -1.7339 -64.33
rradius 92.6692
rwrist 28.9665
rhand -21.9497 10.5976
rfingers 7.12502
rthumb 4.45734 -19.3355
lclavicle -2.56432e-014 9.54166e-015
lhumerus -46.4541 9.98359 76.2647
lradius 46.7747
lwrist 8.51521
lhand -12.73 52.3833
lfingers 7.12502
lthumb 13.3535 81.9354
rfemur -31.2712 1.9505 18.7979
rtibia 35.9269
rfoot -3.90477 -17.938
rtoes 26.9509
lfemur 12.077 -6.01229 -24.8183
ltibia 35.0614
lfoot 29.5775 -8.57101
ltoes -8.08594
300
root 4.28206 17.6092 -11.9207 -0.577723 12.8906 5.30372
lowerback 18.7848 -1.28813 -3.95656
upperback 1.05177 -2.18812 3.42009
thorax -9.11482 -0.795205 6.58758
lowerneck -6.81931 -8.34547 -6.42662
upperneck 28.1714 -10.1534 -2.02885
head 10.3646 -5.51893 -0.741513
rclavicle 1.98785e-015 -7.95139e-015
rhumerus -23.3606 -1.10716 -64.8893
rradius 90.1204
rwrist 30.3813
rhand -21.4182 10.4582
rfingers 7.12502
rthumb 4.97056 -19.4635
lclavicle 1.98785e-015 -7.95139e-015
lhumerus -46.385 9.54894 76.6555
lradius 47.042
lwrist 8.39634
lhand -12.1622 52.2132
lfingers 7.12502
lthumb 13.9006 81.7286
rfemur -30.7294 2.11376 19.2858
rtibia 36.7162
rfoot -4.38167 -17.6594
rtoes 27.4349
lfemur 10.6269 -6.0336 -24.4277
ltibia 37.8393
lfoot 32.1706 -8.97443
ltoes -8.70063
301
root 4.27658 17.6252 -11.7062 -0.871702 12.8198 5.19256
lowerback 18.7992 -1.28112 -4.04973
upperback 1.26186 -2.19513 3.45377
thorax -8.88455 -0.808042 6.67178
lowerneck -7.1996 -8.37416 -6.52464
upperneck 28.3064 -10.2189 -1.78655
head 10.5105 -5.52991 -0.674582
rclavicle -3.93594e-014 1.90833e-014
rhumerus -22.9247 -0.460191 -65.6012
rradius 87.3443
rwrist 31.6089
rhand -21.3203 10.4458
rfingers 7.12502
rthumb 5.06512 -19.4737
lclavicle -3.93594e-014 1.90833e-014
lhumerus -46.0592 9.55776 76.9048
lradius 47.1903
lwrist 8.31781
lhand -11.8418 51.6606
lfingers 7.12502
lthumb 14.2094 81.1546
rfemur -30.0145 2.22027 19.6841
rtibia 37.3727
rfoot -4.95281 -17.5411
rtoes 27.0901
lfemur 9.21521 -6.20685 -24.1404
ltibia 40.5774
lfoot 34.7901 -8.76268
ltoes -6.95526
302
root 4.27453 17.6418 -11.4934 -1.16297 12.8945 5.2256
lowerback 19.0228 -1.25338 -4.10729
upperback 1.4138 -2.1784 3.42427
thorax -8.84144 -0.803003 6.67391
lowerneck -7.66212 -8.48347 -6.58089
upperneck 28.5569 -10.3584 -1.69973
head 10.7071 -5.58596 -0.685337
rclavicle 3.10104e-014 -2.06736e-014
rhumerus -22.3322 -0.139595 -66.2073
rradius 84.2197
rwrist 32.5356
rhand -20.7145 10.4706
rfingers 7.12502
rthumb 5.64996 -19.4341
lclavicle 3.10104e-014 -2.06736e-014
lhumerus -45.6953 9.32268 77.3146
lradius 47.3799
lwrist 8.33644
lhand -11.5169 51.0326
lfingers 7.12502
lthumb 14.5225 80.5044
rfemur -29.1538 2.0153 19.9266
rtibia 37.8112
rfoot -5.56182 -17.3753
rtoes 26.3197
lfemur 7.80895 -6.39605 -24.0246
ltibia 43.2741
lfoot 37.2655 -8.19199
ltoes -5.29809
303
root 4.26704 17.6572 -11.271 -1.63935 12.8859 4.78107
lowerback 19.327 -1.26435 -3.97053
upperback 1.05509 -2.16538 3.49627
thorax -9.41158 -0.768693 6.70666
lowerneck -5.59393 -8.50607 -6.79798
upperneck 28.191 -10.5657 -1.45949
head 10.2079 -5.69286 -0.472234
rclavicle -2.76311e-014 4.13472e-014
rhumerus -22.7651 0.486162 -66.9554
rradius 80.9586
rwrist 33.2258
rhand -20.5536 10.217
rfingers 7.12502
rthumb 5.80538 -19.6835
lclavicle -2.76311e-014 4.13472e-014
lhumerus -46.6429 8.61135 77.5222
lradius 47.6585
lwrist 8.40719
lhand -11.0953 51.0559
lfingers 7.12502
lthumb 14.9287 80.4979
rfemur -28.0582 2.35125 20.661
rtibia 38.0643
rfoot -6.63738 -17.656
rtoes 26.3037
lfemur 6.57371 -6.47812 -23.3337
ltibia 45.9541
lfoot 37.2011 -7.26266
ltoes -10.0373
304
root 4.2517 17.685 -11.0541 -2.18034 12.8226 3.90374
lowerback 18.9417 -1.20758 -3.56347
upperback 1.69687 -1.95831 3.87041
thorax -8.51856 -0.727523 6.78192
lowerneck -7.64789 -8.49276 -6.44684
upperneck 29.1778 -10.3597 -1.86305
head 10.9205 -5.59117 -0.783659
rclavicle -2.62396e-014 2.22639e-014
rhumerus -21.3017 0.209289 -67.3862
rradius 77.3637
rwrist 33.8381
rhand -20.559 10.0359
rfingers 7.12502
rthumb 5.80013 -19.8648
lclavicle -2.62396e-014 2.22639e-014
lhumerus -45.3371 8.51454 78.2132
lradius 47.3451
lwrist 8.15952
lhand -10.9547 50.5451
lfingers 7.12502
lthumb 15.0641 79.977
rfemur -26.8376 3.12661 21.8543
rtibia 38.0621
rfoot -7.57341 -18.27
rtoes 26.7038
lfemur 5.18123 -6.51104 -22.133
ltibia 48.6667
lfoot 36.8465 -6.13475
ltoes -4.94222
305
root 4.26095 17.708 -10.8558 -2.39355 12.9658 3.6446
lowerback 19.2831 -1.29451 -3.17666
upperback 1.58532 -1.99055 3.91025
thorax -8.83693 -0.741301 6.63442
lowerneck -7.9269 -8.47391 -6.65787
upperneck 29.7059 -10.3051 -1.77841
head 11.1975 -5.57668 -0.747668
rclavicle 3.18055e-014 -3.02153e-014
rhumerus -20.9287 0.146093 -67.8909
rradius 74.014
rwrist 34.8596
rhand -20.1219 9.82115
rfingers 7.12502
rthumb 6.22216 -20.0675
lclavicle 3.18055e-014 -3.02153e-014
lhumerus -45.0152 8.30974 78.5836
lradius 46.9741
lwrist 7.81971
lhand -10.8706 49.1371
lfingers 7.12502
lthumb 15.1452 78.5629
rfemur -25.7701 3.21814 22.2803
rtibia 37.8904
rfoot -7.98972 -18.3977
rtoes 25.7135
lfemur 3.42112 -6.70781 -21.8107
ltibia 51.3809
lfoot 35.9721 -5.21023
ltoes -2.83845
306
root 4.26398 17.733 -10.6536 -2.56096 12.8869 3.34166
lowerback 19.1459 -1.20844 -3.01133
upperback 1.56668 -1.8334 3.978
thorax -8.80643 -0.671754 6.5668
lowerneck -7.42501 -8.57277 -6.80997
upperneck 29.7112 -10.5119 -1.57682
head 11.1298 -5.66639 -0.652238
rclavicle 3.51849e-014 -2.54444e-014
rhumerus -20.5467 -0.296233 -68.3109
rradius 70.5433
rwrist 35.7797
rhand -19.2707 9.48932
rfingers 7.12502
rthumb 7.04386 -20.3735
lclavicle 3.51849e-014 -2.54444e-014
lhumerus -44.6313 7.80741 79.0337
lradius 46.729
lwrist 7.56233
lhand -10.5984 48.5739
lfingers 7.12502
lthumb 15.4074 77.9797
rfemur -24.6982 3.55664 22.793
rtibia 37.5844
rfoot -8.2717 -18.5855
rtoes 23.5
lfemur 1.49995 -6.63467 -21.3957
ltibia 54.0282
lfoot 33.8848 -5.12491
ltoes -6.25635
307
root 4.26578 17.757 -10.4552 -2.82497 12.6382 2.63848
lowerback 19.0385 -1.08809 -2.43906
upperback 1.64578 -1.53709 4.13984
thorax -8.71065 -0.552518 6.32937
lowerneck -7.26082 -8.71642 -6.80116
upperneck 29.7517 -10.7396 -1.5433
head 11.1214 -5.76493 -0.662888
rclavicle -1.53064e-014 3.18055e-014
rhumerus -19.7198 -1.03474 -68.6991
rradius 66.631
rwrist 36.0114
rhand -17.5574 9.32657
rfingers 7.12502
rthumb 8.69749 -20.4743
lclavicle -1.53064e-014 3.18055e-014
lhumerus -44.2416 7.12256 79.5767
lradius 46.8633
lwrist 7.39998
lhand -10.0588 48.9894
lfingers 7.12502
lthumb 15.927 78.3545
rfemur -23.6574 3.90701 23.7887
rtibia 37.3206
rfoot -8.61946 -18.7079
rtoes 21.9631
lfemur -0.391126 -6.37181 -20.4961
ltibia 56.5019
lfoot 32.0549 -5.27339
ltoes -0.73869
